<?xml version="1.0" encoding="UTF-8" standalone="no"?>
<svg
   xmlns:dc="http://purl.org/dc/elements/1.1/"
   xmlns:cc="http://creativecommons.org/ns#"
   xmlns:rdf="http://www.w3.org/1999/02/22-rdf-syntax-ns#"
   xmlns:svg="http://www.w3.org/2000/svg"
   xmlns="http://www.w3.org/2000/svg"
   xmlns:sodipodi="http://sodipodi.sourceforge.net/DTD/sodipodi-0.dtd"
   xmlns:inkscape="http://www.inkscape.org/namespaces/inkscape"
   width="175mm"
   height="175mm"
   viewBox="0 0 175 175"
   version="1.1"
   id="svg870"
   inkscape:version="1.0.1 (c497b03c, 2020-09-10)"
   sodipodi:docname="successink.svg">
  <defs
     id="defs864" />
  <sodipodi:namedview
     id="base"
     pagecolor="#ffffff"
     bordercolor="#666666"
     borderopacity="1.0"
     inkscape:pageopacity="0.0"
     inkscape:pageshadow="2"
     inkscape:zoom="1.2879015"
     inkscape:cx="344.82401"
     inkscape:cy="435.50287"
     inkscape:document-units="mm"
     inkscape:current-layer="layer1"
     inkscape:document-rotation="0"
     showgrid="false"
     inkscape:window-width="1680"
     inkscape:window-height="1024"
     inkscape:window-x="1366"
     inkscape:window-y="26"
     inkscape:window-maximized="0" />
  <metadata
     id="metadata867">
    <rdf:RDF>
      <cc:Work
         rdf:about="">
        <dc:format>image/svg+xml</dc:format>
        <dc:type
           rdf:resource="http://purl.org/dc/dcmitype/StillImage" />
        <dc:title></dc:title>
      </cc:Work>
    </rdf:RDF>
  </metadata>
  <g
     inkscape:label="Layer 1"
     inkscape:groupmode="layer"
     id="layer1">
    <path
       id="path10"
       style="fill:#000000;fill-rule:evenodd;stroke:#000000;stroke-width:2"
       inkscape:transform-center-y="-1.5313865e-06"
       d="M 145.5177,142.95397 C 133.20092,134.03224 119.43489,127.28439 103.90946,123.17565 94.534667,137.0404 92.680437,151.97951 88.473367,166.5825 84.073675,152.11355 83.215083,137.6446 73.037282,123.17565 55.737398,126.9097 44.172545,135.42294 31.429039,142.95397 39.700909,129.92409 47.662465,116.73908 51.207361,101.34573 37.112665,94.329094 22.696804,88.918274 7.8005062,85.909641 23.211254,82.33394 38.180868,78.023021 51.207361,70.473561 48.021428,54.657381 40.169314,41.507592 31.429039,28.865321 44.230634,37.059821 57.09702,45.15714 73.03728,48.64364 79.948033,35.351613 84.84571,20.717536 88.473367,5.2367793 92.269211,20.284097 96.345334,35.211296 103.90945,48.64364 c 14.82069,-3.738949 28.37912,-11.26467 41.60824,-19.778319 -7.86493,13.10612 -15.81999,26.158158 -19.77832,41.60824 14.19007,6.539788 28.42919,12.834311 43.40686,15.43608 -16.69647,2.917853 -29.78129,9.447353 -43.40686,15.436089 4.48967,14.16986 9.74279,28.23065 19.77833,41.60824 z"
       sodipodi:nodetypes="ccccccccccccccccc" />
    <ellipse
       style="fill:#ffffff;stroke:#ffffff;stroke-width:2"
       id="path836"
       cx="88.446426"
       cy="86.178566"
       rx="20.760427"
       ry="21.963928" />
  </g>
</svg>
